<svg width="16" height="17" viewBox="0 0 16 17" fill="none" xmlns="http://www.w3.org/2000/svg">
<path d="M6.75 0H9.25C9.66563 0 10 0.355273 10 0.796875V6.375H12.7406C13.2969 6.375 13.575 7.08887 13.1812 7.50723L8.42813 12.5607C8.19375 12.8098 7.80937 12.8098 7.575 12.5607L2.81562 7.50723C2.42187 7.08887 2.7 6.375 3.25625 6.375H6V0.796875C6 0.355273 6.33437 0 6.75 0ZM16 12.4844V16.2031C16 16.6447 15.6656 17 15.25 17H0.75C0.334375 17 0 16.6447 0 16.2031V12.4844C0 12.0428 0.334375 11.6875 0.75 11.6875H5.33437L6.86562 13.3145C7.49375 13.9818 8.50625 13.9818 9.13437 13.3145L10.6656 11.6875H15.25C15.6656 11.6875 16 12.0428 16 12.4844ZM12.125 15.4062C12.125 15.041 11.8438 14.7422 11.5 14.7422C11.1562 14.7422 10.875 15.041 10.875 15.4062C10.875 15.7715 11.1562 16.0703 11.5 16.0703C11.8438 16.0703 12.125 15.7715 12.125 15.4062ZM14.125 15.4062C14.125 15.041 13.8438 14.7422 13.5 14.7422C13.1562 14.7422 12.875 15.041 12.875 15.4062C12.875 15.7715 13.1562 16.0703 13.5 16.0703C13.8438 16.0703 14.125 15.7715 14.125 15.4062Z" fill="black"/>
</svg>
